# xmcd CD database file
#
# Track frame offsets:
#	182
#	11865
#	26745
#	36540
#	53227
#	66757
#	81975
#	101897
#	119870
#	139252
#	156802
#	171095
#	192565
#	213560
#
# Disc length: 3172 seconds
#
# Revision: 2
# Processed by: cddbd v1.4b41PL1 Copyright (c) Steve Scherf et al.
# Submitted via: CDValet v3.31 - Copyright (c) 1997 Greg Leichner
#
DISCID=dc0c620e
DTITLE=Fragment - Sunday Afternoon
DYEAR=1900
DGENRE=
TTITLE0=Put Your Trust In Me
TTITLE1=I Don't Know Why
TTITLE2=Fiddlin' Man
TTITLE3=Dance Of The Storks
TTITLE4=Forget Me
TTITLE5=Goodbye Waltz
TTITLE6=I'm Gettin' Older
TTITLE7=Confusion At The Third Bridge
TTITLE8=We Don't Really Know
TTITLE9=Wild Wind
TTITLE10=The Scholar
TTITLE11=Hotel Hillary
TTITLE12=Lost Between The Two Mountains
TTITLE13=Sundazy Afternoon
EXTD=
EXTT0=
EXTT1=
EXTT2=
EXTT3=
EXTT4=
EXTT5=
EXTT6=
EXTT7=
EXTT8=
EXTT9=
EXTT10=
EXTT11=
EXTT12=
EXTT13=
PLAYORDER=
